<svg width="17" height="23" viewBox="0 0 17 23" fill="none" xmlns="http://www.w3.org/2000/svg">
<path d="M5 9L5 4.5C5 2.567 6.567 1 8.5 1V1C10.433 1 12 2.567 12 4.5L12 9" stroke="#0B1331" stroke-width="2" stroke-linecap="round"/>
<path d="M1 10.832C1 8.94641 1 8.0036 1.58579 7.41782C2.17157 6.83203 3.11438 6.83203 5 6.83203H12C13.8856 6.83203 14.8284 6.83203 15.4142 7.41782C16 8.0036 16 8.94641 16 10.832V17.832C16 19.7176 16 20.6605 15.4142 21.2462C14.8284 21.832 13.8856 21.832 12 21.832H5C3.11438 21.832 2.17157 21.832 1.58579 21.2462C1 20.6605 1 19.7176 1 17.832V10.832Z" stroke="#0B1331" stroke-width="2"/>
<path fill-rule="evenodd" clip-rule="evenodd" d="M15 4.94009L7.03082 19.2246L3.00005 14.58L4.51054 13.2692L6.63362 15.7155L13.2347 4L15 4.94009Z" fill="#0B1331"/>
</svg>
