<svg width="67" height="55" viewBox="0 0 67 55" fill="none" xmlns="http://www.w3.org/2000/svg">
<path d="M14.74 55C18.8493 55 22.3333 53.4871 25.192 50.4612C28.0507 47.2573 29.48 42.9854 29.48 37.6456C29.48 29.9919 28.3187 23.7621 25.996 18.9563C23.6733 13.9725 21.0827 10.0566 18.224 7.20874C15.008 4.00486 11.1667 1.60194 6.7 0L4.02 4.27185C7.05733 5.69579 9.73734 7.38673 12.06 9.34467C14.0253 11.1246 15.9013 13.2605 17.688 15.7524C19.296 18.0663 20.1 20.9142 20.1 24.2961C20.1 25.5421 19.9213 26.521 19.564 27.233C19.3853 27.767 19.1173 28.123 18.76 28.301C18.4027 28.123 17.8667 27.945 17.152 27.767C16.616 27.589 16.08 27.411 15.544 27.233C14.8293 27.055 14.1147 26.966 13.4 26.966C9.29067 26.966 6.07467 28.212 3.752 30.7039C1.25066 33.0178 0 36.2217 0 40.3155C0 44.4094 1.42933 47.8803 4.288 50.7281C7.14667 53.576 10.6307 55 14.74 55ZM52.26 55C56.3693 55 59.8533 53.4871 62.712 50.4612C65.5707 47.2573 67 42.9854 67 37.6456C67 29.9919 65.8387 23.7621 63.516 18.9563C61.1933 13.9725 58.6027 10.0566 55.744 7.20874C52.528 4.00486 48.6867 1.60194 44.22 0L41.54 4.27185C44.5773 5.69579 47.2573 7.38673 49.58 9.34467C51.5453 11.1246 53.4213 13.2605 55.208 15.7524C56.816 18.0663 57.62 20.9142 57.62 24.2961C57.62 25.5421 57.4413 26.521 57.084 27.233C56.9053 27.767 56.6373 28.123 56.28 28.301C55.9227 28.123 55.3867 27.945 54.672 27.767C54.136 27.589 53.6 27.411 53.064 27.233C52.3493 27.055 51.6347 26.966 50.92 26.966C46.8107 26.966 43.5947 28.212 41.272 30.7039C38.7707 33.0178 37.52 36.2217 37.52 40.3155C37.52 44.4094 38.9493 47.8803 41.808 50.7281C44.6667 53.576 48.1507 55 52.26 55Z" fill="#6ACDF8"/>
</svg>
