<svg width="17" height="23" viewBox="0 0 17 23" fill="none" xmlns="http://www.w3.org/2000/svg">
<path d="M5 9.00183L5 4.50183C5 2.56884 6.567 1.00183 8.5 1.00183V1.00183C10.433 1.00183 12 2.56884 12 4.50183L12 9.00183" stroke="white" stroke-width="2" stroke-linecap="round"/>
<path d="M1 10.8339C1 8.94824 1 8.00544 1.58579 7.41965C2.17157 6.83386 3.11438 6.83386 5 6.83386H12C13.8856 6.83386 14.8284 6.83386 15.4142 7.41965C16 8.00544 16 8.94824 16 10.8339V17.8339C16 19.7195 16 20.6623 15.4142 21.2481C14.8284 21.8339 13.8856 21.8339 12 21.8339H5C3.11438 21.8339 2.17157 21.8339 1.58579 21.2481C1 20.6623 1 19.7195 1 17.8339V10.8339Z" stroke="white" stroke-width="2"/>
</svg>
