<svg width="18" height="18" viewBox="0 0 18 18" fill="none" xmlns="http://www.w3.org/2000/svg">
<path d="M8.55261 0.908493C8.73602 0.53687 9.26594 0.53687 9.44934 0.908493L11.8236 5.71919C11.8964 5.86677 12.0372 5.96905 12.2 5.99271L17.509 6.76415C17.9191 6.82374 18.0828 7.32772 17.7861 7.61699L13.9445 11.3616C13.8267 11.4765 13.7729 11.642 13.8007 11.8042L14.7076 17.0916C14.7776 17.5001 14.3489 17.8116 13.9821 17.6187L9.23365 15.1223C9.08799 15.0457 8.91397 15.0457 8.76831 15.1223L4.01986 17.6187C3.65305 17.8116 3.22433 17.5001 3.29439 17.0916L4.20126 11.8042C4.22908 11.642 4.1753 11.4765 4.05746 11.3616L0.215886 7.61699C-0.0808721 7.32772 0.082883 6.82374 0.492993 6.76415L5.80192 5.99271C5.96477 5.96905 6.10555 5.86677 6.17839 5.71919L8.55261 0.908493Z" fill="#ED954E"/>
</svg>
