<svg width="67" height="55" viewBox="0 0 67 55" fill="none" xmlns="http://www.w3.org/2000/svg">
<path d="M52.26 55C48.1507 55 44.6667 53.4871 41.808 50.4612C38.9493 47.2573 37.52 42.9854 37.52 37.6456C37.52 29.9919 38.6813 23.7621 41.004 18.9563C43.3267 13.9725 45.9173 10.0566 48.776 7.20874C51.992 4.00486 55.8333 1.60194 60.3 0L62.98 4.27185C59.9427 5.69579 57.2627 7.38673 54.94 9.34467C52.9747 11.1246 51.0987 13.2605 49.312 15.7524C47.704 18.0663 46.9 20.9142 46.9 24.2961C46.9 25.5421 47.0787 26.521 47.436 27.233C47.6147 27.767 47.8827 28.123 48.24 28.301C48.5973 28.123 49.1333 27.945 49.848 27.767C50.384 27.589 50.92 27.411 51.456 27.233C52.1707 27.055 52.8853 26.966 53.6 26.966C57.7093 26.966 60.9253 28.212 63.248 30.7039C65.7493 33.0178 67 36.2217 67 40.3155C67 44.4094 65.5707 47.8803 62.712 50.7281C59.8533 53.576 56.3693 55 52.26 55ZM14.74 55C10.6307 55 7.14667 53.4871 4.288 50.4612C1.42933 47.2573 0 42.9854 0 37.6456C0 29.9919 1.16133 23.7621 3.484 18.9563C5.80667 13.9725 8.39733 10.0566 11.256 7.20874C14.472 4.00486 18.3133 1.60194 22.78 0L25.46 4.27185C22.4227 5.69579 19.7427 7.38673 17.42 9.34467C15.4547 11.1246 13.5787 13.2605 11.792 15.7524C10.184 18.0663 9.38 20.9142 9.38 24.2961C9.38 25.5421 9.55867 26.521 9.916 27.233C10.0947 27.767 10.3627 28.123 10.72 28.301C11.0773 28.123 11.6133 27.945 12.328 27.767C12.864 27.589 13.4 27.411 13.936 27.233C14.6507 27.055 15.3653 26.966 16.08 26.966C20.1893 26.966 23.4053 28.212 25.728 30.7039C28.2293 33.0178 29.48 36.2217 29.48 40.3155C29.48 44.4094 28.0507 47.8803 25.192 50.7281C22.3333 53.576 18.8493 55 14.74 55Z" fill="#6ACDF8"/>
</svg>
